<svg width="30" height="30" viewBox="0 0 30 30" fill="none" xmlns="http://www.w3.org/2000/svg">
<g clip-path="url(#clip0_2007_2103)">
<path d="M4.24609 4.54071L12.5025 12.7972C13.0653 13.3854 13.3678 14.175 13.3403 14.9882V15.0118C13.3668 15.8259 13.0643 16.6155 12.5025 17.2028L4.24608 25.4593L4.54071 25.7539L12.7972 17.4975C13.3854 16.9347 14.175 16.6322 14.9882 16.6597L15.0118 16.6597C15.8259 16.6332 16.6155 16.9357 17.2028 17.4975L25.4593 25.7539L25.7539 25.4593L17.4975 17.2028C16.9347 16.6146 16.6322 15.825 16.6597 15.0118V14.9882C16.6332 14.1741 16.9357 13.3845 17.4975 12.7972L25.7539 4.54071L25.4593 4.24608L17.2028 12.5025C16.6146 13.0653 15.825 13.3678 15.0118 13.3403H14.9882C14.1741 13.3668 13.3845 13.0643 12.7972 12.5025L4.54071 4.24608L4.24609 4.54071ZM15.8839 14.1161C16.372 14.6042 16.372 15.3958 15.8839 15.8839C15.3958 16.372 14.6042 16.372 14.1161 15.8839C13.628 15.3958 13.628 14.6042 14.1161 14.1161C14.6042 13.628 15.3948 13.629 15.8839 14.1161Z" fill="#2B2C2E"/>
<path d="M4.54071 25.7539L12.7972 17.4975C13.3487 16.9699 14.0774 16.6711 14.8363 16.6585L14.9882 16.6597L15.0118 16.6597C15.8259 16.6332 16.6155 16.9357 17.2028 17.4975L25.4593 25.7539L25.7539 25.4593L17.4975 17.2028L17.3952 17.0902C16.9314 16.554 16.6703 15.8721 16.6585 15.1637L16.6597 15.0118V14.9882C16.6332 14.1741 16.9357 13.3845 17.4975 12.7972L25.7539 4.54071L25.4593 4.24608L17.2028 12.5025C16.6146 13.0653 15.825 13.3678 15.0118 13.3403H14.9882L14.8359 13.3411C14.1269 13.3285 13.4451 13.0677 12.9098 12.6048L12.7972 12.5025L4.54071 4.24608L4.24609 4.54071L12.5025 12.7972C13.0653 13.3854 13.3678 14.175 13.3403 14.9882V15.0118C13.3668 15.8259 13.0643 16.6155 12.5025 17.2028L4.24608 25.4593L4.54071 25.7539ZM15.6716 15.6716C16.0426 15.3007 16.0426 14.6993 15.6716 14.3284C15.2992 13.9579 14.6988 13.958 14.3284 14.3284C13.9574 14.6993 13.9574 15.3007 14.3284 15.6716L14.1161 15.8839L14.0305 15.7889C13.6568 15.3306 13.6568 14.6693 14.0305 14.2111L14.1161 14.1161C14.6042 13.628 15.3948 13.629 15.8839 14.1161C16.372 14.6042 16.372 15.3958 15.8839 15.8839L15.7889 15.9695C15.2979 16.3699 14.5737 16.3415 14.1161 15.8839L14.3284 15.6716C14.6993 16.0426 15.3007 16.0426 15.6716 15.6716ZM17.7097 13.0096C17.2382 13.505 16.9705 14.159 16.9585 14.8413L16.9597 14.9785L16.9597 15.0166L16.9593 15.022C16.9346 15.7518 17.2056 16.4608 17.7097 16.9904L26.1784 25.4591L25.4591 26.1784L16.9904 17.7097C16.4619 17.2066 15.7528 16.9359 15.0215 16.9597L14.9834 16.9597L14.978 16.9593C14.2482 16.9346 13.5392 17.2056 13.0096 17.7097L4.5409 26.1784L3.82164 25.4591L12.2903 16.9904C12.7933 16.4619 13.0641 15.7528 13.0403 15.0215L13.0403 14.9834L13.0407 14.978C13.0653 14.2482 12.7948 13.5388 12.2908 13.0092L3.82164 4.5409L4.5409 3.82164L13.0096 12.2903C13.5381 12.7933 14.2472 13.0641 14.9785 13.0403H15.0166L15.022 13.0407C15.7518 13.0653 16.4608 12.7944 16.9904 12.2903L25.4591 3.82164L26.1784 4.5409L17.7097 13.0096Z" fill="#2B2C2E"/>
</g>
<defs>
<clipPath id="clip0_2007_2103">
<rect width="30" height="30" fill="white"/>
</clipPath>
</defs>
</svg>
