<svg width="31" height="31" viewBox="0 0 31 31" fill="none" xmlns="http://www.w3.org/2000/svg">
<path fill-rule="evenodd" clip-rule="evenodd" d="M18.9875 1.55C18.9875 0.907969 19.508 0.3875 20.15 0.3875H29.45C30.092 0.3875 30.6125 0.907969 30.6125 1.55V10.85C30.6125 11.492 30.092 12.0125 29.45 12.0125C28.808 12.0125 28.2875 11.492 28.2875 10.85V4.35652L17.872 14.772C17.418 15.226 16.682 15.226 16.228 14.772C15.774 14.318 15.774 13.582 16.228 13.128L26.6435 2.7125H20.15C19.508 2.7125 18.9875 2.19203 18.9875 1.55Z" fill="#2B2C2E"/>
<path d="M29.45 14.3375C30.0064 14.3375 30.5324 14.2072 30.9991 13.9754C31 14.4652 31 14.9731 31 15.5C31 22.8068 31 26.4602 28.7301 28.7301C26.4602 31 22.8068 31 15.5 31C8.19323 31 4.53984 31 2.26992 28.7301C0 26.4602 0 22.8068 0 15.5C0 8.19323 0 4.53984 2.26992 2.26992C4.53984 0 8.19323 0 15.5 0C16.0269 0 16.5348 0 17.0246 0.00085144C16.7928 0.467562 16.6625 0.993563 16.6625 1.55C16.6625 3.47609 18.2239 5.0375 20.15 5.0375H21.0304L14.584 11.484C13.222 12.8459 13.222 15.0541 14.584 16.416C15.9459 17.778 18.1541 17.778 19.516 16.416L25.9625 9.96957V10.85C25.9625 12.7761 27.5239 14.3375 29.45 14.3375Z" fill="#2B2C2E"/>
</svg>
