<svg width="30" height="30" viewBox="0 0 30 30" fill="none" xmlns="http://www.w3.org/2000/svg">
<path d="M14.5976 3C16.4963 3.00083 18.3523 3.56481 19.9307 4.62012C21.5088 5.67535 22.7385 7.1747 23.4648 8.92871C24.1911 10.6829 24.3812 12.6135 24.0107 14.4756C23.6402 16.3378 22.7263 18.0489 21.3838 19.3916C19.6462 21.1292 15.5576 23.6401 15.3154 26.2822C15.2802 26.6768 14.9922 26.9999 14.5976 27C14.203 27 13.9162 26.6768 13.8799 26.2822C13.6377 23.6401 9.5453 21.1244 7.80663 19.3857C6.46589 18.0426 5.55289 16.3322 5.18358 14.4707C4.81425 12.609 5.00483 10.6792 5.73143 8.92578C6.45805 7.17244 7.6887 5.67387 9.26659 4.61914C10.8445 3.56446 12.6997 3.001 14.5976 3ZM14.5976 9.31543C14.1664 9.31543 13.7392 9.40044 13.3408 9.56543C12.9425 9.73043 12.5803 9.9725 12.2754 10.2773C11.9705 10.5822 11.7285 10.9445 11.5635 11.3428C11.3985 11.7411 11.3135 12.1685 11.3135 12.5996C11.3135 13.0308 11.3985 13.4581 11.5635 13.8564C11.7285 14.2548 11.9705 14.6169 12.2754 14.9219C12.5804 15.2268 12.9423 15.4697 13.3408 15.6348C13.7392 15.7997 14.1664 15.8848 14.5976 15.8848C15.4686 15.8847 16.304 15.5378 16.9199 14.9219C17.5357 14.306 17.8818 13.4705 17.8818 12.5996C17.8817 11.7287 17.5357 10.8932 16.9199 10.2773C16.304 9.66154 15.4686 9.31546 14.5976 9.31543Z" fill="#BCDA32"/>
</svg>
