<svg width="30" height="30" viewBox="0 0 30 30" fill="none" xmlns="http://www.w3.org/2000/svg">
<g clip-path="url(#clip0_2002_2490)">
<path d="M0.640594 15.3206L7.32771 17.6583L23.2054 7.66612C23.436 7.52181 23.6717 7.84356 23.4734 8.03169L11.4532 19.421L11.0067 25.7971C10.9994 25.9038 11.0238 26.0104 11.0767 26.1026C11.1296 26.1949 11.2085 26.2682 11.3028 26.3132C11.3972 26.3582 11.5027 26.3726 11.6052 26.3544C11.7077 26.3363 11.8024 26.2866 11.8768 26.2118L15.5776 22.4653L22.3436 27.7371C23.0726 28.3057 24.1286 27.905 24.3249 26.9856L29.036 4.96604C29.3049 3.71007 28.1087 2.64971 26.9426 3.10934L0.607365 13.4906C-0.219179 13.8166 -0.196335 15.0277 0.640594 15.3206Z" fill="#2B2C2E"/>
</g>
<defs>
<clipPath id="clip0_2002_2490">
<rect width="30" height="25" fill="white" transform="translate(0 3)"/>
</clipPath>
</defs>
</svg>
