<svg width="169" height="19" viewBox="0 0 169 19" fill="none" xmlns="http://www.w3.org/2000/svg">
<path d="M160.378 17.9068C161.542 17.9068 162.588 17.6101 163.516 17.0131C164.445 16.4199 165.172 15.5526 165.699 14.4186C166.245 13.266 166.518 11.8955 166.518 10.311C166.518 8.63642 166.218 7.1383 165.616 5.82415C165.032 4.51001 164.187 3.48123 163.076 2.74155C161.985 2.00188 160.712 1.63392 159.256 1.63392C157.365 1.63392 155.891 2.27222 154.837 3.55257C153.784 4.81414 153.253 6.56383 153.253 8.79787C153.253 10.51 153.553 12.0607 154.155 13.4462C154.754 14.8354 155.592 15.9243 156.664 16.7165C157.756 17.5088 158.991 17.9068 160.374 17.9068H160.378ZM159.423 18.5C157.733 18.5 156.221 18.1133 154.894 17.336C153.583 16.5438 152.567 15.4812 151.84 14.1446C151.131 12.7929 150.775 11.3248 150.775 9.73655C150.775 7.88173 151.248 6.29349 152.192 4.97935C153.14 3.64643 154.349 2.64393 155.823 1.97935C157.316 1.31101 158.832 0.980601 160.378 0.980601C162.106 0.980601 163.626 1.38611 164.934 2.19712C166.245 2.98936 167.245 4.04443 167.935 5.35857C168.644 6.67272 169 8.06946 169 9.54881C169 11.1896 168.564 12.6952 167.689 14.062C166.817 15.4324 165.642 16.5138 164.168 17.306C162.713 18.0982 161.129 18.4962 159.419 18.4962L159.423 18.5ZM142.562 0.984355C143.4 0.984355 144.264 1.06696 145.154 1.22841C146.045 1.37109 146.754 1.58135 147.284 1.85169C147.428 1.92303 147.519 2.00563 147.557 2.09574C147.61 2.16708 147.656 2.30225 147.694 2.50125L147.993 5.77159C147.993 5.82415 147.947 5.8617 147.857 5.88048C147.766 5.88048 147.713 5.85419 147.694 5.79787C147.22 4.39362 146.447 3.34606 145.374 2.6627C144.302 1.96058 143.009 1.60763 141.501 1.60763C140.175 1.60763 139.019 1.91552 138.037 2.52753C137.055 3.12078 136.301 3.96934 135.771 5.06946C135.263 6.16959 135.005 7.43867 135.005 8.88048C135.005 10.5551 135.331 12.0982 135.987 13.5025C136.642 14.9068 137.525 16.0257 138.632 16.8554C139.761 17.6665 140.989 18.072 142.316 18.072C144.935 18.072 146.811 16.5851 147.936 13.6114C147.936 13.5588 147.974 13.5288 148.046 13.5288C148.099 13.5288 148.145 13.5363 148.182 13.5551C148.236 13.5738 148.266 13.6001 148.266 13.6377L147.883 16.908C147.845 17.1258 147.8 17.2685 147.747 17.3398C147.709 17.3924 147.61 17.4562 147.447 17.5275C145.772 18.1771 144.063 18.5 142.316 18.5C140.114 18.5 138.276 18.0682 136.805 17.2009C135.331 16.3185 134.251 15.1996 133.557 13.8479C132.868 12.4962 132.519 11.0807 132.519 9.60513C132.519 7.93054 132.981 6.44368 133.91 5.14456C134.857 3.83041 136.093 2.80914 137.62 2.08824C139.166 1.34856 140.811 0.980601 142.558 0.980601L142.562 0.984355ZM114.142 17.5275C115.525 17.5275 116.697 17.0695 117.663 16.1496L116.954 15.5826C115.901 14.7716 114.87 13.8705 113.869 12.8792C112.888 11.8692 112.043 10.8705 111.33 9.87922C110.731 10.4011 110.258 10.9531 109.913 11.5275C109.587 12.087 109.42 12.7065 109.42 13.3936C109.42 14.1333 109.621 14.8166 110.019 15.4474C110.421 16.0782 110.974 16.5814 111.683 16.9606C112.391 17.3398 113.21 17.5275 114.138 17.5275H114.142ZM111.36 3.71402C111.36 5.11827 111.853 6.6239 112.835 8.22716C113.691 7.5438 114.354 6.8567 114.828 6.17334C115.321 5.48999 115.563 4.72403 115.563 3.87547C115.563 3.08323 115.355 2.45995 114.934 2.00939C114.517 1.55882 113.972 1.33354 113.297 1.33354C112.005 1.33354 111.36 2.12578 111.36 3.71402ZM124.867 17.8542C124.939 17.873 124.966 17.9368 124.951 18.0419C124.951 18.132 124.924 18.1771 124.867 18.1771H121.43C120.721 18.1771 119.592 17.5989 118.046 16.4462C116.609 17.8166 114.809 18.5 112.641 18.5C111.478 18.5 110.496 18.3198 109.693 17.9593C108.912 17.5801 108.321 17.0957 107.919 16.4987C107.536 15.8867 107.347 15.2297 107.347 14.5238C107.347 13.5325 107.665 12.669 108.302 11.9293C108.939 11.1896 109.867 10.3899 111.084 9.52253C110.773 9.09074 110.5 8.64017 110.265 8.17084C109.738 7.07071 109.473 6.09074 109.473 5.2234C109.473 4.35607 109.663 3.63892 110.045 2.95181C110.447 2.26846 111 1.72778 111.709 1.32979C112.437 0.916771 113.274 0.706508 114.218 0.706508C115.162 0.706508 115.984 0.92428 116.621 1.35607C117.257 1.78786 117.576 2.4637 117.576 3.3836C117.576 4.06696 117.394 4.69024 117.03 5.24969C116.685 5.80914 116.257 6.29349 115.749 6.71026C115.241 7.12703 114.529 7.63767 113.619 8.24969L113.073 8.60263C114.347 10.5851 116.257 12.5601 118.804 14.5238C119.277 13.5851 119.512 12.5225 119.512 11.3323C119.512 10.5588 119.368 9.98811 119.077 9.62766C118.804 9.24844 118.277 9.0607 117.492 9.0607C117.439 9.0607 117.401 9.00813 117.382 8.89925C117.382 8.79036 117.42 8.7378 117.492 8.7378L123.442 8.71151C123.514 8.71151 123.552 8.76408 123.552 8.87297C123.552 8.98185 123.514 9.03442 123.442 9.03442C122.844 9.03442 122.396 9.09825 122.105 9.22215C121.813 9.33104 121.604 9.5 121.476 9.73655C121.347 9.95432 121.21 10.3035 121.066 10.7916C120.558 12.5038 119.967 13.8742 119.293 14.8992C120.422 15.7103 121.468 16.3673 122.431 16.8742C123.393 17.3773 124.204 17.704 124.86 17.8467L124.867 17.8542ZM99.3126 1.28098C99.3656 1.28098 99.3959 1.33354 99.3959 1.44243C99.3959 1.55131 99.3694 1.60388 99.3126 1.60388C98.0013 1.60388 97.0197 2.4224 96.3641 4.0632L90.7968 18.1471C90.7779 18.2184 90.6793 18.2559 90.4974 18.2559C90.3155 18.2559 90.217 18.2184 90.198 18.1471L83.3498 3.52253C83.0239 2.83917 82.6866 2.35106 82.3417 2.06195C82.0158 1.75407 81.6065 1.60388 81.1138 1.60388C81.0607 1.60388 81.0304 1.55131 81.0304 1.44243C81.0304 1.33354 81.0569 1.28098 81.1138 1.28098L81.9589 1.30726C82.4327 1.34481 82.8761 1.35982 83.2967 1.35982C84.2972 1.35982 85.2523 1.34105 86.1618 1.30726C86.4537 1.28849 86.8251 1.28098 87.2798 1.28098C87.3329 1.28098 87.3632 1.33354 87.3632 1.44243C87.3632 1.55131 87.3367 1.60388 87.2798 1.60388C86.1505 1.60388 85.5896 1.95682 85.5896 2.65895C85.5896 2.91051 85.673 3.22591 85.8359 3.60513L91.2402 15.2297L95.716 3.95807C95.86 3.56008 95.9358 3.2184 95.9358 2.92929C95.9358 2.04693 95.2461 1.60388 93.8628 1.60388C93.8097 1.60388 93.7794 1.55131 93.7794 1.44243C93.7794 1.33354 93.8059 1.28098 93.8628 1.28098L95.0907 1.30726C95.7463 1.34481 96.3451 1.35982 96.8909 1.35982C97.2736 1.35982 97.7019 1.34105 98.1718 1.30726L99.3164 1.28098H99.3126ZM79.4463 14.0695C79.4463 14.0319 79.4842 14.0169 79.5562 14.0169C79.6092 14.0169 79.6547 14.0357 79.6926 14.0695C79.7457 14.0882 79.776 14.107 79.776 14.122C79.5941 15.4212 79.5031 16.6377 79.5031 17.7716C79.5031 17.9143 79.4766 18.0232 79.4197 18.0945C79.3667 18.1471 79.2568 18.1771 79.0938 18.1771H67.4704C67.4173 18.1771 67.387 18.1245 67.387 18.0156C67.387 17.9068 67.4135 17.8542 67.4704 17.8542C68.126 17.8542 68.5998 17.8091 68.8878 17.719C69.1796 17.6289 69.3805 17.4562 69.4866 17.2046C69.5965 16.9343 69.6495 16.5288 69.6495 15.9881V3.46996C69.6495 2.92929 69.5965 2.53129 69.4866 2.27972C69.3767 2.02816 69.1682 1.85544 68.8575 1.76533C68.5657 1.65645 68.1033 1.60388 67.4666 1.60388C67.4135 1.60388 67.3832 1.55131 67.3832 1.44243C67.3832 1.33354 67.4098 1.28098 67.4666 1.28098H78.6011C78.783 1.28098 78.874 1.36358 78.874 1.52503L78.9271 4.93054C78.9271 4.9831 78.874 5.02065 78.7641 5.03942C78.6731 5.03942 78.6201 5.01314 78.6011 4.95682C78.4723 3.96558 78.1198 3.2184 77.5362 2.71151C76.9526 2.18961 76.1908 1.92678 75.2433 1.92678H73.8525C73.0528 1.92678 72.5147 2.04318 72.2418 2.27972C71.9689 2.4975 71.8325 2.92929 71.8325 3.57885V9.06821H74.834C75.7626 9.06821 76.4447 8.91427 76.8805 8.61014C77.3164 8.28723 77.5362 7.79161 77.5362 7.12328C77.5362 7.08573 77.5817 7.07071 77.6726 7.07071C77.7825 7.07071 77.8356 7.08949 77.8356 7.12328L77.8091 9.39487L77.8356 10.6114C77.8735 11.1896 77.8886 11.6402 77.8886 11.9631C77.8886 12.0006 77.8356 12.0156 77.7257 12.0156C77.6158 12.0156 77.5627 11.9969 77.5627 11.9631C77.5627 11.1896 77.3353 10.6189 76.8805 10.2584C76.4447 9.87922 75.736 9.69149 74.7507 9.69149H71.8325V15.883C71.8325 16.5325 71.95 16.9718 72.1887 17.2084C72.4427 17.4412 72.9429 17.5613 73.6895 17.5613H75.4632C76.5016 17.5613 77.3543 17.2647 78.0289 16.6677C78.7186 16.0557 79.1923 15.1884 79.4463 14.0732V14.0695ZM53.5503 8.88048H58.0261L55.6802 4.01439L53.5503 8.88048ZM66.2652 17.8542C66.3372 17.8542 66.3751 17.9068 66.3751 18.0156C66.3751 18.1245 66.3372 18.1771 66.2652 18.1771C65.9204 18.1771 65.3632 18.1583 64.6015 18.1245C63.8738 18.087 63.3357 18.072 62.9908 18.072C62.5739 18.072 62.0547 18.0907 61.437 18.1245C60.8192 18.1583 60.3531 18.1771 60.0461 18.1771C59.9741 18.1771 59.9362 18.1245 59.9362 18.0156C59.9362 17.9068 59.9741 17.8542 60.0461 17.8542C60.6639 17.8542 61.111 17.8016 61.3839 17.6927C61.6568 17.5651 61.7932 17.3511 61.7932 17.0432C61.7932 16.7353 61.6568 16.3148 61.3839 15.7741L58.3293 9.50375H53.3078L51.0718 14.6139C50.8179 15.2071 50.689 15.7028 50.689 16.1008C50.689 17.2722 51.572 17.8579 53.3343 17.8579C53.4253 17.8579 53.4708 17.9105 53.4708 18.0194C53.4708 18.1283 53.4253 18.1809 53.3343 18.1809C53.0084 18.1809 52.5347 18.1621 51.9169 18.1283C51.2272 18.0907 50.6246 18.0757 50.1167 18.0757C49.643 18.0757 49.0783 18.0945 48.4265 18.1283C47.8428 18.1658 47.3729 18.1809 47.0091 18.1809C46.9371 18.1809 46.8992 18.1283 46.8992 18.0194C46.8992 17.9105 46.9371 17.8579 47.0091 17.8579C47.5169 17.8579 47.9452 17.7603 48.29 17.5613C48.6539 17.3623 48.9987 17.0207 49.3285 16.5325C49.6544 16.0444 50.0296 15.3235 50.4465 14.3698L56.2525 1.08949C56.2714 1.03692 56.3359 1.00688 56.442 1.00688C56.5519 0.98811 56.6163 1.01439 56.6315 1.08949L63.2068 14.4712C63.8246 15.7854 64.3514 16.679 64.791 17.1483C65.2268 17.6176 65.7195 17.8504 66.2652 17.8504V17.8542ZM46.3155 4.93054C46.3155 4.9831 46.2625 5.02065 46.1526 5.03942C46.0616 5.03942 46.0086 5.01314 45.9896 4.95682C45.8608 3.96558 45.5083 3.2184 44.9247 2.71151C44.341 2.18961 43.5793 1.92678 42.6318 1.92678H41.241C40.4603 1.92678 39.9221 2.03567 39.6303 2.24969C39.3574 2.46746 39.221 2.88048 39.221 3.49249V9.38736H41.7298C42.7114 9.38736 43.4315 9.22591 43.8863 8.89925C44.36 8.57634 44.595 8.08823 44.595 7.43867C44.595 7.40113 44.648 7.38611 44.7579 7.38611C44.8678 7.38611 44.9209 7.40488 44.9209 7.43867L44.8944 9.71026C44.8944 10.2509 44.9019 10.6564 44.9209 10.9268L44.9474 12.2785C44.9474 12.316 44.8944 12.331 44.7845 12.331C44.6745 12.331 44.6215 12.3123 44.6215 12.2785C44.6215 11.505 44.3865 10.9343 43.9128 10.5738C43.4391 10.1946 42.6849 10.0069 41.6465 10.0069H39.2172V15.8717C39.2172 16.4499 39.2892 16.8705 39.437 17.1408C39.6 17.3924 39.8994 17.5726 40.339 17.6815C40.7748 17.7904 41.4683 17.8429 42.412 17.8429C42.4499 17.8429 42.4651 17.8955 42.4651 18.0044C42.4651 18.1133 42.4461 18.1658 42.412 18.1658C41.6654 18.1658 41.0856 18.1583 40.6649 18.1396L38.0992 18.1133L36.1891 18.1396C35.8442 18.1583 35.3629 18.1658 34.7414 18.1658C34.7035 18.1658 34.6883 18.1133 34.6883 18.0044C34.6883 17.8955 34.7073 17.8429 34.7414 17.8429C35.416 17.8429 35.9049 17.7979 36.2156 17.7078C36.5416 17.6176 36.7614 17.4449 36.8713 17.1934C36.9812 16.923 37.0342 16.5175 37.0342 15.9768V3.46996C37.0342 2.92929 36.9812 2.53129 36.8713 2.27972C36.7614 2.02816 36.5529 1.85544 36.2422 1.76533C35.9504 1.65645 35.488 1.60388 34.8513 1.60388C34.7982 1.60388 34.7679 1.55131 34.7679 1.44243C34.7679 1.33354 34.7945 1.28098 34.8513 1.28098H45.9858C46.1677 1.28098 46.2587 1.36358 46.2587 1.52503L46.3118 4.93054H46.3155ZM20.9388 8.87672H25.4146L23.0687 4.01064L20.9388 8.87672ZM33.6537 17.8504C33.7257 17.8504 33.7636 17.903 33.7636 18.0119C33.7636 18.1208 33.7257 18.1733 33.6537 18.1733C33.3088 18.1733 32.7517 18.1546 31.99 18.1208C31.2623 18.0832 30.7242 18.0682 30.3793 18.0682C29.9624 18.0682 29.4432 18.087 28.8255 18.1208C28.2077 18.1583 27.7416 18.1733 27.4346 18.1733C27.3626 18.1733 27.3247 18.1208 27.3247 18.0119C27.3247 17.903 27.3626 17.8504 27.4346 17.8504C28.0523 17.8504 28.4995 17.7979 28.7724 17.689C29.0453 17.5613 29.1817 17.3473 29.1817 17.0394C29.1817 16.7315 29.0453 16.311 28.7724 15.7703L25.7178 9.5H20.6963L18.4603 14.6101C18.2064 15.2034 18.0775 15.699 18.0775 16.097C18.0775 17.2685 18.9605 17.8542 20.7228 17.8542C20.8138 17.8542 20.8592 17.9068 20.8592 18.0156C20.8592 18.1245 20.8138 18.1771 20.7228 18.1771C20.3969 18.1771 19.9232 18.1583 19.3054 18.1245C18.6157 18.087 18.0131 18.072 17.5052 18.072C17.0315 18.072 16.4668 18.0907 15.815 18.1245C15.2313 18.1621 14.7614 18.1771 14.3976 18.1771C14.3256 18.1771 14.2877 18.1245 14.2877 18.0156C14.2877 17.9068 14.3256 17.8542 14.3976 17.8542C14.9054 17.8542 15.3337 17.7566 15.6785 17.5576C16.0424 17.3586 16.3872 17.0169 16.717 16.5288C17.0429 16.0407 17.4181 15.3198 17.835 14.3661L23.6372 1.08949C23.6561 1.03692 23.7206 1.00688 23.8267 1.00688C23.9366 0.98811 24.001 1.01439 24.0162 1.08949L30.5915 14.4712C31.2093 15.7854 31.7361 16.679 32.1757 17.1483C32.6115 17.6176 33.1042 17.8504 33.6499 17.8504H33.6537ZM4.38863 1.82165C3.25926 1.82165 2.38001 2.13705 1.74332 2.76783C1.10663 3.37985 0.632902 4.37109 0.325926 5.74155C0.306976 5.7791 0.242549 5.79412 0.136434 5.79412C0.045478 5.79412 0 5.77534 0 5.74155C0.0720068 5.21965 0.155383 4.38986 0.246339 3.25594C0.337295 2.12203 0.382773 1.26596 0.382773 0.687735C0.382773 0.597622 0.435831 0.552566 0.545736 0.552566C0.655641 0.552566 0.708699 0.597622 0.708699 0.687735C0.708699 1.08573 1.20896 1.28098 2.20947 1.28098C3.75572 1.33354 5.58242 1.36358 7.69336 1.36358C8.76588 1.36358 9.90283 1.34481 11.1042 1.31101L12.9612 1.28473C13.6358 1.28473 14.1247 1.23967 14.4355 1.14956C14.7462 1.05945 14.9433 0.879224 15.0343 0.608886C15.0532 0.537547 15.1063 0.5 15.1972 0.5C15.3071 0.5 15.3602 0.537547 15.3602 0.608886C15.3071 1.11202 15.2427 1.92303 15.1707 3.04193C15.1176 4.16083 15.0873 5.06195 15.0873 5.74531C15.0873 5.78285 15.0343 5.79787 14.9244 5.79787C14.8334 5.79787 14.7879 5.7791 14.7879 5.74531C14.6591 4.35607 14.2952 3.35732 13.6965 2.74531C13.0977 2.13329 12.2033 1.82541 11.0208 1.82541C10.3462 1.82541 9.86493 1.87046 9.57312 1.96058C9.2813 2.03191 9.08044 2.18586 8.97432 2.41865C8.86442 2.63642 8.81136 3.00438 8.81136 3.52628V15.9881C8.81136 16.5476 8.86442 16.9531 8.97432 17.2046C9.10318 17.4562 9.33815 17.6289 9.68302 17.719C10.0279 17.8091 10.585 17.8542 11.3468 17.8542C11.3847 17.8542 11.3998 17.9068 11.3998 18.0156C11.3998 18.1245 11.3809 18.1771 11.3468 18.1771C10.7101 18.1771 10.2098 18.1696 9.84598 18.1508L7.68957 18.1245L5.59 18.1508C5.22618 18.1696 4.71834 18.1771 4.0627 18.1771C4.00964 18.1771 3.97932 18.1245 3.97932 18.0156C3.97932 17.9068 4.00585 17.8542 4.0627 17.8542C4.8093 17.8542 5.35503 17.8091 5.69991 17.719C6.04478 17.6289 6.28354 17.4562 6.40861 17.2046C6.53746 16.9343 6.5981 16.5288 6.5981 15.9881V3.46996C6.5981 2.96683 6.54504 2.60638 6.43514 2.38861C6.32523 2.15582 6.12437 2.00188 5.83634 1.93054C5.54452 1.8592 5.06322 1.82165 4.38863 1.82165Z" fill="#2B2C2E"/>
</svg>
