<svg width="34" height="34" viewBox="0 0 34 34" fill="none" xmlns="http://www.w3.org/2000/svg">
<g clip-path="url(#clip0_2007_2128)">
<path d="M17 34C26.3888 34 34 26.3888 34 17C34 7.61116 26.3888 0 17 0C7.61116 0 0 7.61116 0 17C0 26.3888 7.61116 34 17 34Z" fill="#2B2C2E"/>
<path d="M15.287 13.5726C14.7597 13.5726 14.3477 13.721 14.0509 14.0193C13.7527 14.3088 13.5323 14.7756 13.3882 15.4225C13.3795 15.4398 13.3493 15.4484 13.2989 15.4484C13.2571 15.4484 13.2355 15.4398 13.2355 15.4225C13.27 15.1761 13.3075 14.7857 13.3507 14.2498C13.3925 13.7138 13.4141 13.3104 13.4141 13.0382C13.4141 12.9964 13.44 12.9748 13.4905 12.9748C13.5409 12.9748 13.5668 12.9964 13.5668 13.0382C13.5668 13.2254 13.8002 13.3191 14.2684 13.3191C14.9902 13.345 15.8445 13.358 16.8314 13.358C17.3328 13.358 17.8644 13.3493 18.4248 13.3321L19.2921 13.3191C19.6062 13.3191 19.8367 13.2975 19.9807 13.2557C20.1248 13.2139 20.2184 13.1289 20.2617 13.0007C20.2703 12.9661 20.2962 12.9503 20.338 12.9503C20.3884 12.9503 20.4144 12.9676 20.4144 13.0007C20.3884 13.2384 20.3596 13.6216 20.3251 14.1475C20.2991 14.6748 20.2862 15.0998 20.2862 15.4225C20.2862 15.4398 20.2602 15.4484 20.2098 15.4484C20.168 15.4484 20.1464 15.4398 20.1464 15.4225C20.0873 14.7684 19.9173 14.2959 19.6364 14.0077C19.3555 13.7182 18.9391 13.5741 18.3873 13.5741C18.0733 13.5741 17.8471 13.5957 17.7117 13.6375C17.5762 13.6721 17.4826 13.7441 17.4307 13.8536C17.3803 13.9559 17.3544 14.1302 17.3544 14.3765V20.2545C17.3544 20.5182 17.3803 20.7098 17.4307 20.8279C17.4898 20.9475 17.6007 21.0282 17.7621 21.0699C17.9234 21.1132 18.1828 21.1333 18.5401 21.1333C18.5573 21.1333 18.566 21.1593 18.566 21.2097C18.566 21.2601 18.5573 21.286 18.5401 21.286C18.2418 21.286 18.0084 21.2817 17.8384 21.2731L16.8314 21.2601L15.8503 21.2731C15.6803 21.2817 15.4426 21.286 15.1357 21.286C15.1098 21.286 15.0968 21.2601 15.0968 21.2097C15.0968 21.1593 15.1098 21.1333 15.1357 21.1333C15.4844 21.1333 15.7394 21.1117 15.9007 21.0699C16.0621 21.0267 16.173 20.946 16.2321 20.8279C16.2912 20.6997 16.3214 20.5095 16.3214 20.2545V14.3506C16.3214 14.1129 16.2955 13.9429 16.2451 13.8406C16.1946 13.7297 16.101 13.6576 15.9641 13.6245C15.8287 13.5899 15.6025 13.5741 15.2884 13.5741L15.287 13.5726Z" fill="#D1FF03"/>
<path d="M24.6601 13.3306C24.7955 13.3306 24.918 13.296 25.026 13.2254C25.1341 13.1549 25.2191 13.054 25.281 12.92C25.3444 12.7846 25.3761 12.6218 25.3761 12.436C25.3761 12.2386 25.3415 12.0614 25.2709 11.9072C25.2032 11.7516 25.1038 11.6306 24.9742 11.5442C24.8459 11.4577 24.6975 11.4131 24.5275 11.4131C24.3071 11.4131 24.1342 11.488 24.0118 11.6393C23.8879 11.7877 23.8274 11.9937 23.8274 12.2573C23.8274 12.459 23.8619 12.642 23.9325 12.8062C24.0031 12.9704 24.1011 13.0987 24.2264 13.1923C24.3547 13.286 24.4987 13.3321 24.6601 13.3321V13.3306ZM24.5491 13.4012C24.3518 13.4012 24.1746 13.3551 24.0204 13.2643C23.8677 13.1707 23.7481 13.0454 23.6631 12.8883C23.5796 12.7284 23.5392 12.5555 23.5392 12.3682C23.5392 12.1493 23.594 11.962 23.7049 11.8078C23.8158 11.6508 23.957 11.5327 24.1285 11.4534C24.3028 11.3742 24.48 11.3353 24.6601 11.3353C24.8618 11.3353 25.039 11.3828 25.1917 11.4793C25.3444 11.573 25.4611 11.6969 25.5418 11.8525C25.6253 12.0081 25.6657 12.1723 25.6657 12.3466C25.6657 12.5397 25.6153 12.7169 25.513 12.8782C25.4107 13.0396 25.2738 13.1678 25.1024 13.26C24.9324 13.3537 24.748 13.3998 24.5477 13.3998L24.5491 13.4012ZM22.5797 11.3353C22.6777 11.3353 22.7786 11.3454 22.8823 11.3641C22.986 11.3814 23.0696 11.4059 23.1315 11.4376C23.1488 11.4462 23.1589 11.4563 23.1632 11.4664C23.169 11.475 23.1747 11.4909 23.1791 11.5139L23.2136 11.9C23.2136 11.9 23.2079 11.9101 23.1978 11.913C23.1877 11.913 23.1805 11.9101 23.1791 11.9029C23.1243 11.7372 23.0336 11.6133 22.9082 11.5327C22.7829 11.4491 22.6316 11.4088 22.4558 11.4088C22.3003 11.4088 22.1663 11.4448 22.051 11.5168C21.9358 11.5874 21.8479 11.6868 21.7859 11.8165C21.7269 11.9461 21.6966 12.096 21.6966 12.266C21.6966 12.4633 21.7355 12.6449 21.8119 12.8105C21.8882 12.9762 21.9919 13.1088 22.1216 13.2053C22.2527 13.3004 22.3968 13.3493 22.5524 13.3493C22.8578 13.3493 23.0768 13.1736 23.2093 12.8235C23.2093 12.8177 23.2136 12.8134 23.2223 12.8134C23.228 12.8134 23.2338 12.8134 23.2381 12.8163C23.2439 12.8177 23.2482 12.8221 23.2482 12.8264L23.2036 13.2125C23.1992 13.2384 23.1935 13.2543 23.1877 13.2629C23.1834 13.2687 23.1719 13.2773 23.1531 13.2845C22.9572 13.3609 22.7584 13.3998 22.5538 13.3998C22.2974 13.3998 22.0827 13.3493 21.9098 13.2471C21.7384 13.1433 21.6116 13.0108 21.5309 12.8523C21.4503 12.6924 21.4099 12.5267 21.4099 12.3524C21.4099 12.155 21.4647 11.9793 21.5727 11.8265C21.6836 11.671 21.8277 11.5514 22.0064 11.4664C22.1864 11.3799 22.3795 11.3353 22.5826 11.3353H22.5797Z" fill="#D1FF03"/>
<mask id="mask0_2007_2128" style="mask-type:luminance" maskUnits="userSpaceOnUse" x="3" y="3" width="28" height="28">
<path d="M17 30.8118C24.628 30.8118 30.8118 24.628 30.8118 17C30.8118 9.37195 24.628 3.1882 17 3.1882C9.37198 3.1882 3.18823 9.37195 3.18823 17C3.18823 24.628 9.37198 30.8118 17 30.8118Z" fill="white"/>
</mask>
<g mask="url(#mask0_2007_2128)">
<path d="M17 3.50659C24.4526 3.50659 30.4934 9.54735 30.4934 17H31.1302C31.1302 9.19583 24.8027 2.86837 16.9986 2.86837V3.50515L17 3.50659ZM3.50663 17C3.50663 9.54735 9.54739 3.50659 17 3.50659V2.86981C9.19587 2.86981 2.86841 9.19727 2.86841 17.0014H3.50519L3.50663 17ZM17 30.4934C9.54739 30.4934 3.50663 24.4526 3.50663 17H2.86985C2.86985 24.8041 9.19731 31.1316 17.0015 31.1316V30.4948L17 30.4934ZM30.4934 17C30.4934 24.4526 24.4526 30.4934 17 30.4934V31.1301C24.8042 31.1301 31.1316 24.8027 31.1316 16.9985H30.4948L30.4934 17Z" fill="#D1FF03"/>
</g>
</g>
<defs>
<clipPath id="clip0_2007_2128">
<rect width="34" height="34" fill="white"/>
</clipPath>
</defs>
</svg>
