<svg width="60" height="60" viewBox="0 0 60 60" fill="none" xmlns="http://www.w3.org/2000/svg">
<g clip-path="url(#clip0_2013_3345)">
<path d="M30 60C46.5685 60 60 46.5685 60 30C60 13.4315 46.5685 0 30 0C13.4315 0 0 13.4315 0 30C0 46.5685 13.4315 60 30 60Z" fill="#2B2C2E"/>
<path d="M26.9772 23.9517C26.0466 23.9517 25.3195 24.2136 24.7958 24.7399C24.2695 25.2509 23.8805 26.0746 23.6263 27.2161C23.611 27.2466 23.5577 27.2619 23.4687 27.2619C23.3949 27.2619 23.3568 27.2466 23.3568 27.2161C23.4178 26.7814 23.4839 26.0924 23.5602 25.1466C23.6339 24.2009 23.6721 23.489 23.6721 23.0085C23.6721 22.9348 23.7178 22.8966 23.8068 22.8966C23.8958 22.8966 23.9416 22.9348 23.9416 23.0085C23.9416 23.339 24.3534 23.5043 25.1797 23.5043C26.4534 23.55 27.961 23.5729 29.7026 23.5729C30.5873 23.5729 31.5255 23.5577 32.5144 23.5272L34.0449 23.5043C34.5992 23.5043 35.006 23.4661 35.2602 23.3924C35.5144 23.3187 35.6797 23.1687 35.756 22.9424C35.7712 22.8814 35.817 22.8534 35.8907 22.8534C35.9797 22.8534 36.0255 22.8839 36.0255 22.9424C35.9797 23.3619 35.9288 24.0382 35.8678 24.9661C35.8221 25.8966 35.7992 26.6466 35.7992 27.2161C35.7992 27.2466 35.7534 27.2619 35.6644 27.2619C35.5907 27.2619 35.5526 27.2466 35.5526 27.2161C35.4483 26.0619 35.1483 25.228 34.6526 24.7195C34.1568 24.2085 33.4221 23.9543 32.4483 23.9543C31.8941 23.9543 31.4949 23.9924 31.256 24.0661C31.017 24.1272 30.8517 24.2543 30.7602 24.4475C30.6712 24.628 30.6255 24.9356 30.6255 25.3704V35.7433C30.6255 36.2085 30.6712 36.5466 30.7602 36.7551C30.8644 36.9661 31.0602 37.1085 31.3449 37.1822C31.6297 37.2585 32.0873 37.2941 32.7178 37.2941C32.7483 37.2941 32.7636 37.3399 32.7636 37.4288C32.7636 37.5178 32.7483 37.5636 32.7178 37.5636C32.1916 37.5636 31.7797 37.556 31.4797 37.5407L29.7026 37.5178L27.9712 37.5407C27.6712 37.556 27.2517 37.5636 26.7102 37.5636C26.6644 37.5636 26.6416 37.5178 26.6416 37.4288C26.6416 37.3399 26.6644 37.2941 26.7102 37.2941C27.3255 37.2941 27.7755 37.256 28.0602 37.1822C28.3449 37.106 28.5407 36.9636 28.6449 36.7551C28.7492 36.5289 28.8026 36.1933 28.8026 35.7433V25.3246C28.8026 24.9051 28.7568 24.6051 28.6678 24.4246C28.5788 24.2288 28.4136 24.1017 28.1721 24.0433C27.9331 23.9822 27.5339 23.9543 26.9797 23.9543L26.9772 23.9517Z" fill="#D1FF03"/>
<path d="M43.5178 23.5246C43.7568 23.5246 43.9729 23.4636 44.1636 23.339C44.3543 23.2145 44.5043 23.0365 44.6136 22.8C44.7254 22.5611 44.7814 22.2738 44.7814 21.9458C44.7814 21.5975 44.7204 21.2848 44.5958 21.0128C44.4763 20.7382 44.3009 20.5246 44.0721 20.3721C43.8458 20.2195 43.5839 20.1407 43.2839 20.1407C42.8949 20.1407 42.5899 20.2729 42.3738 20.5399C42.1551 20.8017 42.0483 21.1653 42.0483 21.6306C42.0483 21.9865 42.1093 22.3094 42.2339 22.5992C42.3585 22.889 42.5314 23.1153 42.7526 23.2806C42.9788 23.4458 43.2331 23.5272 43.5178 23.5272V23.5246ZM43.3221 23.6492C42.9738 23.6492 42.661 23.5678 42.389 23.4077C42.1195 23.2424 41.9085 23.0212 41.7585 22.7441C41.611 22.4619 41.5399 22.1568 41.5399 21.8263C41.5399 21.4399 41.6365 21.1094 41.8322 20.8373C42.028 20.5602 42.2771 20.3517 42.5797 20.2119C42.8873 20.0721 43.2 20.0034 43.5178 20.0034C43.8738 20.0034 44.1865 20.0873 44.456 20.2577C44.7254 20.4229 44.9314 20.6416 45.0738 20.9161C45.2212 21.1907 45.2924 21.4806 45.2924 21.7882C45.2924 22.1289 45.2034 22.4416 45.0229 22.7263C44.8424 23.0111 44.6009 23.2373 44.2983 23.4C43.9983 23.5653 43.6729 23.6467 43.3195 23.6467L43.3221 23.6492ZM39.8466 20.0034C40.0195 20.0034 40.1975 20.0212 40.3805 20.0543C40.5636 20.0848 40.711 20.128 40.8204 20.1839C40.8509 20.1992 40.8687 20.217 40.8763 20.2348C40.8865 20.25 40.8966 20.278 40.9043 20.3187L40.9653 21C40.9653 21 40.9551 21.0178 40.9373 21.0229C40.9195 21.0229 40.9068 21.0178 40.9043 21.0051C40.8077 20.7128 40.6475 20.4941 40.4263 20.3517C40.2051 20.2043 39.9382 20.1331 39.628 20.1331C39.3534 20.1331 39.117 20.1967 38.9136 20.3238C38.7102 20.4483 38.5551 20.6238 38.4458 20.8526C38.3415 21.0814 38.2882 21.3458 38.2882 21.6458C38.2882 21.9941 38.3568 22.3144 38.4915 22.6068C38.6263 22.8992 38.8093 23.1331 39.0382 23.3034C39.2695 23.4712 39.5238 23.5577 39.7983 23.5577C40.3373 23.5577 40.7238 23.2475 40.9577 22.6297C40.9577 22.6195 40.9653 22.6119 40.9805 22.6119C40.9907 22.6119 41.0009 22.6119 41.0085 22.617C41.0187 22.6195 41.0263 22.6272 41.0263 22.6348L40.9475 23.3161C40.9399 23.3619 40.9297 23.3899 40.9195 23.4051C40.9119 23.4153 40.8916 23.4306 40.8585 23.4433C40.5127 23.578 40.1619 23.6467 39.8009 23.6467C39.3483 23.6467 38.9695 23.5577 38.6644 23.3772C38.3619 23.1941 38.1382 22.9602 37.9958 22.6806C37.8534 22.3983 37.7822 22.106 37.7822 21.7983C37.7822 21.45 37.8788 21.1399 38.0695 20.8704C38.2653 20.5958 38.5195 20.3848 38.8348 20.2348C39.1526 20.0822 39.4932 20.0034 39.8517 20.0034H39.8466Z" fill="#D1FF03"/>
<mask id="mask0_2013_3345" style="mask-type:luminance" maskUnits="userSpaceOnUse" x="5" y="5" width="50" height="50">
<path d="M30 54.3737C43.4612 54.3737 54.3737 43.4612 54.3737 30C54.3737 16.5387 43.4612 5.62625 30 5.62625C16.5387 5.62625 5.62622 16.5387 5.62622 30C5.62622 43.4612 16.5387 54.3737 30 54.3737Z" fill="white"/>
</mask>
<g mask="url(#mask0_2013_3345)">
<path d="M29.9999 6.18812C43.1516 6.18812 53.8118 16.8483 53.8118 30H54.9355C54.9355 16.2279 43.7694 5.06184 29.9974 5.06184V6.18557L29.9999 6.18812ZM6.18804 30C6.18804 16.8483 16.8482 6.18812 29.9999 6.18812V5.06439C16.2279 5.06439 5.06177 16.2305 5.06177 30.0025H6.1855L6.18804 30ZM29.9999 53.8118C16.8482 53.8118 6.18804 43.1517 6.18804 30H5.06431C5.06431 43.772 16.2304 54.9381 30.0024 54.9381V53.8144L29.9999 53.8118ZM53.8118 30C53.8118 43.1517 43.1516 53.8118 29.9999 53.8118V54.9356C43.7719 54.9356 54.938 43.7695 54.938 29.9974H53.8143L53.8118 30Z" fill="#D1FF03"/>
</g>
</g>
<defs>
<clipPath id="clip0_2013_3345">
<rect width="60" height="60" fill="white"/>
</clipPath>
</defs>
</svg>
